<mxfile host="65bd71144e">
    <diagram id="e41nHkQyGy-95oed0Nfv" name="Page-1">
        <mxGraphModel dx="554" dy="419" grid="1" gridSize="10" guides="1" tooltips="1" connect="1" arrows="1" fold="1" page="1" pageScale="1" pageWidth="850" pageHeight="1100" math="0" shadow="0">
            <root>
                <mxCell id="0"/>
                <mxCell id="1" parent="0"/>
                <mxCell id="17" style="edgeStyle=none;html=1;entryX=0.606;entryY=0.004;entryDx=0;entryDy=0;entryPerimeter=0;" edge="1" parent="1" source="2" target="5">
                    <mxGeometry relative="1" as="geometry"/>
                </mxCell>
                <mxCell id="2" value="have Clear Guidelines&lt;br&gt;&lt;br&gt;1. Display what characters will be used&lt;br&gt;&lt;ul&gt;&lt;li&gt;Capital Letters -&lt;/li&gt;&lt;ul&gt;&lt;li&gt;Upper&lt;/li&gt;&lt;li&gt;Lower&lt;/li&gt;&lt;/ul&gt;&lt;li&gt;Special Characters&lt;/li&gt;&lt;li&gt;Numbers&lt;/li&gt;&lt;/ul&gt;" style="whiteSpace=wrap;html=1;align=left;" vertex="1" parent="1">
                    <mxGeometry x="220" y="30" width="200" height="180" as="geometry"/>
                </mxCell>
                <mxCell id="15" style="edgeStyle=none;html=1;entryX=0.5;entryY=0;entryDx=0;entryDy=0;" edge="1" parent="1" source="5" target="14">
                    <mxGeometry relative="1" as="geometry"/>
                </mxCell>
                <mxCell id="5" value="Once program is started&lt;br&gt;&lt;ol&gt;&lt;li&gt;take in 3 arrays, merge them&lt;br&gt;&lt;/li&gt;&lt;li&gt;Take the merged array and meet the length requirements&lt;/li&gt;&lt;li&gt;Generate using rand()&lt;br&gt;&lt;br&gt;&lt;/li&gt;&lt;/ol&gt;" style="whiteSpace=wrap;html=1;align=left;" vertex="1" parent="1">
                    <mxGeometry x="120" y="260" width="340" height="150" as="geometry"/>
                </mxCell>
                <mxCell id="10" value="" style="edgeStyle=none;html=1;" edge="1" parent="1" target="9">
                    <mxGeometry relative="1" as="geometry">
                        <mxPoint x="580" y="340" as="sourcePoint"/>
                    </mxGeometry>
                </mxCell>
                <mxCell id="9" value="Program set the length" style="whiteSpace=wrap;html=1;" vertex="1" parent="1">
                    <mxGeometry x="660" y="310" width="120" height="60" as="geometry"/>
                </mxCell>
                <mxCell id="14" value="Ask&amp;nbsp; user if they want a new password, or keep the one generated&lt;br&gt;&lt;ul&gt;&lt;li&gt;catch all other unknows user puts&lt;/li&gt;&lt;/ul&gt;" style="whiteSpace=wrap;html=1;align=left;" vertex="1" parent="1">
                    <mxGeometry x="150" y="510" width="280" height="80" as="geometry"/>
                </mxCell>
            </root>
        </mxGraphModel>
    </diagram>
</mxfile>